<?xml version="1.0" standalone="no"?>
<!DOCTYPE svg PUBLIC "-//W3C//DTD SVG 20010904//EN"
 "http://www.w3.org/TR/2001/REC-SVG-20010904/DTD/svg10.dtd">
<svg version="1.0" xmlns="http://www.w3.org/2000/svg"
 width="126.000000pt" height="69.000000pt" viewBox="0 0 126.000000 69.000000"
 preserveAspectRatio="xMidYMid meet">

<g transform="translate(0.000000,69.000000) scale(0.100000,-0.100000)"
fill="#000000" stroke="none">
<path d="M1033 396 c-19 -9 -23 -18 -21 -56 l1 -45 4 43 c4 37 7 42 29 42 14
0 22 4 19 10 -3 6 -1 10 4 10 6 0 11 -4 11 -10 0 -5 19 -10 43 -10 l42 0 -29
15 c-32 17 -71 18 -103 1z"/>
<path d="M320 350 c0 -45 -25 -66 -42 -36 -5 9 -13 14 -19 11 -16 -10 -10 -34
12 -45 16 -9 26 -8 45 5 19 12 24 24 24 60 0 25 -4 45 -10 45 -5 0 -10 -18
-10 -40z"/>
<path d="M360 376 c0 -9 13 -16 33 -19 l32 -4 -32 -1 c-31 -2 -33 -4 -33 -42
0 -22 5 -40 10 -40 6 0 10 11 10 25 0 33 23 32 48 -2 25 -35 41 -23 17 13 -12
19 -14 29 -6 37 6 6 11 19 11 29 0 15 -8 18 -45 18 -32 0 -45 -4 -45 -14z"/>
<path d="M560 329 l0 -60 43 3 c49 4 56 22 10 26 -32 3 -33 5 -33 48 0 24 -4
44 -10 44 -6 0 -10 -27 -10 -61z"/>
<path d="M667 384 c-14 -14 6 -24 49 -24 32 0 44 4 44 15 0 11 -11 15 -43 15
-24 0 -47 -3 -50 -6z"/>
<path d="M780 379 c0 -8 20 -35 45 -59 l45 -44 0 57 c0 31 -4 57 -10 57 -5 0
-10 -14 -10 -32 l0 -32 -35 34 c-22 22 -35 29 -35 19z"/>
<path d="M906 377 c-29 -21 -16 -51 22 -55 17 -2 32 -8 32 -14 0 -7 -13 -8
-35 -5 -38 6 -47 -6 -16 -23 26 -13 43 -13 65 3 28 21 13 57 -24 57 -16 0 -32
5 -36 12 -5 8 5 9 34 5 44 -5 55 5 23 23 -26 13 -43 13 -65 -3z"/>
<path d="M130 372 c0 -5 13 -20 28 -35 22 -21 31 -24 40 -15 9 9 12 5 12 -20
0 -54 18 -35 22 23 1 30 1 55 -1 55 -3 0 -14 -9 -26 -20 l-22 -20 -18 20 c-19
21 -35 26 -35 12z"/>
<path d="M1063 363 c-7 -2 -13 -15 -13 -28 0 -13 6 -27 13 -32 8 -5 2 -10 -18
-14 -18 -4 -1 -7 45 -6 l75 2 3 43 c2 25 -1 42 -7 42 -6 0 -11 -18 -11 -40 0
-37 -2 -40 -27 -40 -25 0 -25 1 -9 19 31 35 -5 73 -51 54z m45 -31 c3 -16 -2
-22 -17 -22 -24 0 -35 15 -27 36 9 23 40 13 44 -14z"/>
<path d="M1080 336 c0 -9 5 -16 10 -16 6 0 10 4 10 9 0 6 -4 13 -10 16 -5 3
-10 -1 -10 -9z"/>
<path d="M664 336 c-3 -8 -4 -25 -2 -38 3 -20 9 -23 51 -26 37 -2 47 0 47 12
0 12 -10 16 -35 16 -19 0 -35 5 -35 10 0 6 14 10 30 10 20 0 30 5 30 15 0 20
-78 21 -86 1z"/>
<path d="M130 308 c0 -32 17 -46 26 -23 4 9 0 24 -10 33 -15 15 -16 14 -16
-10z"/>
<path d="M780 308 c0 -32 17 -46 26 -23 4 9 0 24 -10 33 -15 15 -16 14 -16
-10z"/>
<path d="M405 221 c-3 -5 0 -13 6 -17 7 -4 9 -3 5 4 -3 5 0 13 6 15 9 4 10 6
1 6 -6 1 -14 -3 -18 -8z"/>
<path d="M440 221 c0 -6 4 -13 10 -16 6 -3 7 1 4 9 -7 18 -14 21 -14 7z"/>
<path d="M486 215 c4 -8 8 -15 10 -15 2 0 4 7 4 15 0 8 -4 15 -10 15 -5 0 -7
-7 -4 -15z"/>
<path d="M520 223 c0 -4 23 -9 51 -10 29 -1 49 0 46 3 -9 9 -97 16 -97 7z"/>
<path d="M630 219 c0 -5 5 -7 10 -4 6 3 10 8 10 11 0 2 -4 4 -10 4 -5 0 -10
-5 -10 -11z"/>
<path d="M686 221 c-4 -7 -5 -15 -2 -18 9 -9 19 4 14 18 -4 11 -6 11 -12 0z"/>
<path d="M720 220 c0 -5 7 -7 15 -4 8 4 15 8 15 10 0 2 -7 4 -15 4 -8 0 -15
-4 -15 -10z"/>
<path d="M765 219 c-3 -4 0 -11 6 -15 8 -4 9 -3 5 4 -5 8 5 11 33 8 23 -2 43
-1 46 4 2 4 -16 7 -41 7 -24 0 -47 -3 -49 -8z"/>
<path d="M870 220 c0 -5 7 -7 15 -4 8 4 15 8 15 10 0 2 -7 4 -15 4 -8 0 -15
-4 -15 -10z"/>
<path d="M370 210 c0 -5 5 -10 11 -10 5 0 7 5 4 10 -3 6 -8 10 -11 10 -2 0 -4
-4 -4 -10z"/>
</g>
</svg>
